<?xml version="1.0" standalone="no"?>
<!DOCTYPE svg PUBLIC "-//W3C//DTD SVG 20010904//EN"
 "http://www.w3.org/TR/2001/REC-SVG-20010904/DTD/svg10.dtd">
<svg version="1.0" xmlns="http://www.w3.org/2000/svg"
 width="1218.000000pt" height="1218.000000pt" viewBox="0 0 1218.000000 1218.000000"
 preserveAspectRatio="xMidYMid meet">
<metadata>
Created by potrace 1.11, written by Peter Selinger 2001-2013
</metadata>
<g transform="translate(0.000000,1218.000000) scale(0.100000,-0.100000)"
fill="#000000" stroke="none">
<path d="M4975 10509 c-1220 -710 -2226 -1291 -2235 -1291 -8 0 -518 288
-1133 641 -615 352 -1121 641 -1124 641 -2 0 -3 -585 -1 -1300 2 -853 0 -1301
-7 -1303 -10 -4 17 -37 30 -37 3 0 505 -286 1116 -636 611 -349 1117 -638
1126 -641 15 -6 16 106 11 1285 -3 711 -3 1292 1 1292 3 0 1007 -574 2231
-1275 l2225 -1274 3 1264 c1 696 5 1265 8 1265 3 0 504 -286 1114 -635 610
-349 1112 -635 1115 -635 4 0 3 584 -1 1298 -5 982 -4 1301 5 1306 13 8 -3 28
-32 39 -41 16 -2194 1252 -2209 1268 -9 11 -18 19 -20 19 -1 0 -1002 -581
-2223 -1291z"/>
<path d="M9451 4331 c3 -1027 1 -1300 -8 -1296 -7 2 -1013 577 -2235 1277
-1222 700 -2229 1275 -2237 1277 -12 3 -13 -159 -7 -1263 4 -696 5 -1266 2
-1266 -3 0 -505 286 -1116 636 -611 350 -1113 634 -1115 632 -3 -2 -5 -593 -5
-1312 l0 -1308 37 -20 c167 -89 2191 -1254 2203 -1267 15 -17 158 65 2249
1281 2154 1253 2234 1298 2260 1285 27 -14 2161 -1234 2220 -1270 l34 -20 -5
1301 c-3 797 -1 1305 5 1311 6 6 0 15 -14 24 -13 8 -526 302 -1139 652 -613
351 -1119 640 -1124 643 -4 2 -6 -581 -5 -1297z"/>
</g>
</svg>
